<?xml version="1.0" encoding="UTF-8" standalone="no"?>
<!-- Created with Inkscape (http://www.inkscape.org/) -->

<svg
   xmlns:dc="http://purl.org/dc/elements/1.1/"
   xmlns:cc="http://creativecommons.org/ns#"
   xmlns:rdf="http://www.w3.org/1999/02/22-rdf-syntax-ns#"
   xmlns:svg="http://www.w3.org/2000/svg"
   xmlns="http://www.w3.org/2000/svg"
   xmlns:sodipodi="http://sodipodi.sourceforge.net/DTD/sodipodi-0.dtd"
   xmlns:inkscape="http://www.inkscape.org/namespaces/inkscape"
   width="670"
   height="378"
   viewBox="0 0 670.00001 378.00001"
   id="svg2"
   version="1.1"
   inkscape:version="0.91 r13725"
   sodipodi:docname="noimage.svg"
   inkscape:export-filename="C:\nexusmods\deploy\public_html\Contents\Images\noimage.png"
   inkscape:export-xdpi="90"
   inkscape:export-ydpi="90">
  <defs
     id="defs4" />
  <sodipodi:namedview
     id="base"
     pagecolor="#ffffff"
     bordercolor="#666666"
     borderopacity="1.0"
     inkscape:pageopacity="0.0"
     inkscape:pageshadow="2"
     inkscape:zoom="0.98994949"
     inkscape:cx="244.68405"
     inkscape:cy="264.88765"
     inkscape:document-units="px"
     inkscape:current-layer="layer1"
     showgrid="false"
     units="px"
     borderlayer="true"
     inkscape:window-width="1920"
     inkscape:window-height="1027"
     inkscape:window-x="-8"
     inkscape:window-y="-8"
     inkscape:window-maximized="1" />
  <metadata
     id="metadata7">
    <rdf:RDF>
      <cc:Work
         rdf:about="">
        <dc:format>image/svg+xml</dc:format>
        <dc:type
           rdf:resource="http://purl.org/dc/dcmitype/StillImage" />
        <dc:title></dc:title>
      </cc:Work>
    </rdf:RDF>
  </metadata>
  <g
     inkscape:label="Layer 1"
     inkscape:groupmode="layer"
     id="layer1"
     transform="translate(0,-674.36216)">
    <rect
       style="color:#000000;clip-rule:nonzero;display:inline;overflow:visible;visibility:visible;opacity:1;isolation:auto;mix-blend-mode:normal;color-interpolation:sRGB;color-interpolation-filters:linearRGB;solid-color:#000000;solid-opacity:1;fill:#000000;fill-opacity:0.13017752;fill-rule:nonzero;stroke:none;stroke-width:1.29999995;stroke-linecap:butt;stroke-linejoin:miter;stroke-miterlimit:4;stroke-dasharray:2.6, 1.3;stroke-dashoffset:0;stroke-opacity:1;marker:none;color-rendering:auto;image-rendering:auto;shape-rendering:auto;text-rendering:auto;enable-background:accumulate"
       id="rect12025"
       width="670"
       height="378"
       x="0"
       y="674.36218" />
    <g
       id="g12196"
       style="opacity:0.544">
      <path
         inkscape:connector-curvature="0"
         d="m 277.36721,990.06903 c -0.93568,0 -2.02731,0 -2.96299,-0.15595 -2.33921,-0.31189 -4.52246,-0.77973 -7.01761,-1.55947 -4.36652,-1.40352 -8.10924,-3.43083 -10.76034,-4.9903 -5.92598,-3.43083 -12.00791,-7.6414 -18.40174,-12.94359 -2.80704,-2.33921 -5.61408,-4.83436 -8.26518,-7.32951 l -2.18326,-2.18325 c -1.55947,-1.40353 -2.96299,-2.96299 -4.05462,-4.67841 -2.02731,-3.11894 -3.74272,-7.17356 -3.89867,-12.47575 -0.15595,-1.71542 -0.3119,-3.43084 -0.3119,-5.3022 0,-3.74272 0.15595,-7.79734 0.77974,-11.69602 1.09163,-8.10924 3.74273,-15.28279 5.77004,-20.74094 0.15594,-0.46784 0.31189,-0.93568 0.46784,-1.40352 -0.62379,-1.40352 -1.09163,-2.96299 -1.71542,-4.52246 -2.80704,-8.10924 -4.67841,-17.15416 -5.61409,-26.19908 -0.93568,-9.51276 -0.62379,-19.18147 0.77974,-28.69423 0.31189,-2.02731 0.62378,-4.05462 1.09162,-5.92598 -3.74272,-5.45815 -8.42113,-13.25549 -11.38412,-22.30041 l 0,-0.15595 c -0.62379,-1.87136 -2.18326,-6.54977 -1.24758,-12.47575 0.3119,-2.18326 0.77974,-4.36651 1.55947,-6.70572 1.40352,-4.36651 3.43083,-7.95329 4.9903,-10.60439 3.43084,-5.92598 7.6414,-11.85196 12.78765,-18.24579 2.3392,-2.80704 4.67841,-5.61409 7.17356,-8.10924 l 2.18326,-2.18325 c 1.09162,-1.24758 2.3392,-2.33921 3.74272,-3.27489 3.11894,-2.3392 7.48545,-4.36651 13.41143,-4.52246 1.87137,-0.15595 3.89868,-0.31189 5.92599,-0.31189 l 0.15594,0 c 3.89868,0 8.10924,0.31189 12.16386,0.93568 6.23788,0.93568 11.85197,2.6511 16.84227,4.52246 3.27488,-1.40352 6.70572,-2.6511 10.2925,-3.89867 8.42113,-2.80705 17.46605,-4.67841 26.51097,-5.3022 9.51276,-0.77973 19.18147,-0.31189 28.38234,1.24758 2.18325,0.31189 4.36651,0.77973 6.54977,1.24757 7.3295,-4.9903 14.03522,-8.57708 21.05283,-10.76033 l 0.15595,0 c 1.55947,-0.62379 4.9903,-1.71542 9.51276,-1.71542 0.93568,0 2.02731,0 2.96299,0.15595 2.3392,0.31189 4.52246,0.77973 7.01761,1.55947 4.36652,1.40352 8.10924,3.43083 10.76034,4.9903 5.92598,3.43083 12.00791,7.6414 18.40173,12.94359 2.80705,2.3392 5.61409,4.83435 8.26519,7.32951 l 2.18326,2.18325 c 1.09163,0.93568 2.18325,2.02731 2.96299,3.27489 2.80704,3.58678 4.9903,8.73302 5.14625,15.90658 0.15594,2.49515 0.15594,5.14625 0,7.79735 -0.3119,5.77003 -1.09163,11.22818 -2.49515,16.21848 -1.09163,3.74272 -2.33921,7.48545 -3.74273,11.22817 2.80704,7.01761 4.83435,14.19117 6.23788,21.52068 2.80704,15.43874 2.49515,31.34533 -0.93568,46.62812 2.02731,2.96299 3.89867,5.77004 5.45814,8.57708 2.65109,4.67841 4.83435,9.51276 6.39382,14.50307 0.62379,1.87136 2.02731,6.54977 1.09163,12.78764 -0.3119,2.18326 -0.93568,4.21057 -1.71542,6.54977 -2.80704,7.9533 -7.17356,14.50307 -11.07223,19.96121 -4.21056,5.92598 -9.04492,11.69602 -14.03522,16.99821 l -1.87136,1.87136 c -1.09163,1.24758 -2.33921,2.33921 -3.74273,3.43084 -3.11894,2.3392 -7.48545,4.21056 -13.41143,4.52246 -1.87137,0.15594 -3.89868,0.31189 -5.92599,0.31189 l -0.15594,0 c -4.21057,0 -8.42114,-0.31189 -12.78765,-1.09163 -7.01761,-1.09163 -13.25549,-3.27488 -18.86958,-5.45814 -2.96299,1.24757 -6.08192,2.3392 -9.04492,3.27488 -8.73302,2.6511 -17.93389,4.36652 -27.13476,4.83436 -9.51276,0.62379 -19.18147,-0.15595 -28.53828,-1.87136 -1.09163,-0.15595 -2.33921,-0.46784 -3.43084,-0.62379 -8.10923,5.77003 -15.28279,9.51276 -22.76824,12.00791 l -0.15595,0 c -1.55947,-0.15595 -4.9903,1.09163 -9.51276,1.09163 l 0,0 z m -30.87749,-44.28892 16.53037,5.77003 c 1.40353,-4.05462 1.55947,-8.42113 0.62379,-12.47575 0,0.31189 0,0.77973 0.15595,1.09163 0,0.46784 0.15594,1.09163 0.15594,1.71541 -0.15594,-3.11893 -1.24757,-7.17355 -4.05462,-10.91628 -1.09162,-1.40352 -2.3392,-2.6511 -3.74272,-3.74273 l 0.77973,0.62379 1.40353,1.40352 c -1.24758,-1.24757 -2.6511,-2.49515 -4.21057,-3.58678 l -7.6414,20.11716 0,0 z m 154.54339,-7.32951 c -1.24758,1.24758 -2.49515,2.49515 -3.58678,4.21057 l 18.55768,7.17356 0,-17.31011 c 0,0 0,0 0,0 -1.71541,0 -3.43083,0.15595 -4.9903,0.62379 0.31189,0 0.62379,0 0.93568,0 0.46784,0 1.09163,-0.15595 1.71542,-0.15595 -2.80705,0.15595 -6.54977,1.09163 -9.9806,3.27488 -1.87137,1.24758 -3.43084,2.6511 -4.83436,4.52247 l 0.62379,-0.77974 1.55947,-1.55947 0,0 z m -137.07734,-4.05462 c 0.77974,0.62379 1.55947,1.24758 2.33921,2.02731 4.05462,3.43083 7.79734,6.08193 11.22818,8.10924 2.18325,-1.09163 4.6784,-2.6511 7.3295,-4.67841 0.77973,-0.46784 1.40352,-1.09162 2.18326,-1.71541 0.46784,-0.3119 0.77973,-0.77974 1.24757,-1.09163 0.15595,-0.15595 0.46784,-0.46784 0.62379,-0.62379 l 9.66871,-9.82465 13.09954,4.52246 c 0.46784,0.15594 0.93568,0.31189 1.24757,0.46784 2.80705,0.93568 5.61409,1.55947 8.42114,2.18325 5.77003,1.09163 11.85196,1.55947 17.77794,1.09163 5.61409,-0.31189 11.38413,-1.40352 16.68632,-2.96299 2.6511,-0.77973 5.3022,-1.71541 7.79735,-2.96299 1.24757,-0.46784 2.49515,-1.09163 3.58678,-1.71542 3.11894,-1.55947 6.70572,-2.49515 10.29249,-2.49515 5.61409,0 9.82466,2.02731 11.85197,3.11894 0.62379,0.3119 1.24757,0.62379 2.02731,0.77974 3.89867,1.55947 8.42113,3.43083 12.47575,4.05462 0.62379,0.15594 1.40352,0.15594 2.02731,0.31189 2.33921,-2.6511 4.52246,-5.45814 6.54977,-8.26519 1.24758,-1.71541 2.49515,-3.43083 3.58678,-5.14624 -0.15595,-0.3119 -0.31189,-0.62379 -0.62379,-1.09163 -1.09162,-1.87137 -2.3392,-3.74273 -3.89867,-6.08193 -0.46784,-0.77974 -1.09163,-1.40352 -1.71542,-2.18326 -0.31189,-0.31189 -0.46784,-0.62379 -0.77973,-0.93568 -6.39382,-6.23788 -8.57708,-15.12685 -5.61409,-23.54798 0.15595,-0.46784 0.3119,-0.93569 0.46784,-1.24758 3.58678,-11.22818 4.21057,-23.23609 2.18326,-34.77616 -1.09163,-5.45814 -2.6511,-10.91628 -4.9903,-16.06253 -0.15595,-0.46784 -0.46784,-0.93568 -0.62379,-1.40352 -5.14625,-9.51277 -2.96299,-17.622 -1.09163,-21.52068 0.77974,-1.55947 1.40352,-3.27488 2.02731,-4.83435 1.24758,-2.96299 2.18326,-6.08193 3.11894,-8.88898 0.31189,-1.40352 0.62379,-2.80704 0.77973,-4.52246 -0.77973,-0.62378 -1.55946,-1.24757 -2.3392,-2.02731 -4.21057,-3.43083 -7.79734,-6.08193 -11.22818,-8.10924 -2.18325,1.24758 -4.6784,2.80705 -7.48545,4.67841 -0.77973,0.62379 -1.55947,1.24758 -2.3392,1.87136 -0.15595,0.15595 -0.46784,0.3119 -0.62379,0.62379 -4.21057,4.05462 -9.82466,6.23788 -15.59469,6.23788 -2.80705,0 -5.45814,-0.46784 -8.10924,-1.55947 -0.62379,-0.15595 -1.24758,-0.46784 -1.87136,-0.62379 -2.80705,-0.77973 -5.61409,-1.55947 -8.57708,-2.02731 -5.77004,-0.93568 -11.85197,-1.24757 -17.77795,-0.77973 -5.61409,0.46784 -11.22818,1.55947 -16.53037,3.27488 -2.6511,0.77974 -5.14625,1.87137 -7.6414,2.96299 -1.24758,0.46784 -2.33921,1.09163 -3.58678,1.71542 l -0.62379,0.31189 c -3.27488,1.87137 -7.17356,2.80705 -10.91628,2.80705 -3.43083,0 -6.86167,-0.77974 -10.13655,-2.33921 -0.77974,-0.31189 -1.40352,-0.62378 -2.18326,-0.93568 -3.74272,-1.55947 -8.26518,-3.27488 -12.16386,-3.74272 -0.62379,-0.15595 -1.24757,-0.15595 -1.71541,-0.3119 -0.62379,0.77974 -1.24758,1.55947 -1.87137,2.18326 -3.43083,4.21057 -6.08193,7.79735 -8.10924,11.38412 1.09163,2.18326 2.6511,4.52247 4.52246,7.32951 0.46785,0.77973 1.09163,1.55947 1.71542,2.18326 0.31189,0.46784 0.77974,0.77973 1.09163,1.24757 l 9.04492,9.51276 -3.89867,12.47576 c -0.3119,0.77973 -0.46784,1.55946 -0.77974,2.3392 -0.77973,2.80704 -1.40352,5.77004 -1.87136,8.73303 -0.93568,5.92598 -1.09163,11.85196 -0.46784,17.93389 0.46784,5.61409 1.71541,11.22818 3.58678,16.53037 0.93568,2.6511 2.02731,5.14625 3.11894,7.6414 0.15594,0.3119 0.31189,0.62379 0.46784,0.93568 3.27488,6.70572 3.27488,14.19117 -0.15595,20.89689 -0.31189,0.62379 -0.62379,1.24757 -0.77973,1.87136 -0.62379,1.55947 -1.40353,3.11894 -2.02731,4.67841 -1.24758,3.43083 -2.80705,7.48545 -3.27489,11.07223 0,0.15595 -0.15595,0.62379 -0.15595,0.93568 l 0,0 z M 410.70182,797.1627 c 1.24757,1.24758 2.65109,2.49515 4.36651,3.74273 l 7.6414,-20.11715 -16.53037,-5.77004 c -1.40353,4.05462 -1.55947,8.42113 -0.62379,12.47575 0,-0.15594 0,-0.31189 0,-0.46784 0,-0.46784 0,-1.24757 0,-2.02731 l 0,-0.15594 c 0,2.3392 0.77973,6.23787 3.27488,9.9806 1.24758,1.71541 2.6511,3.27488 4.36652,4.6784 l -0.77974,-0.62378 -1.71541,-1.71542 0,0 z m -156.8826,-19.49336 0,17.3101 c 1.71542,0 3.43084,-0.15594 4.99031,-0.62378 -0.3119,0 -0.62379,0 -0.93569,0 -0.46784,0 -1.09162,0.15594 -1.71541,0.15594 2.80704,-0.15594 6.54977,-1.09162 9.9806,-3.27488 1.87136,-1.24758 3.43083,-2.6511 4.83435,-4.52246 l -0.62378,0.77973 -1.40353,1.55947 c 1.24758,-1.24757 2.49515,-2.6511 3.58678,-4.21056 l -18.71363,-7.17356 0,0 z"
         id="path11"
         style="fill:#101010;fill-opacity:1" />
      <path
         inkscape:connector-curvature="0"
         d="m 323.68344,826.48072 -44.13298,1.09163 8.88898,-10.91629 c -19.80526,-12.16385 -38.98673,-16.06253 -53.1779,-10.29249 l -4.83435,2.02731 2.18325,-4.9903 c 4.99031,-11.38413 12.00792,-21.67662 21.05284,-30.2537 l 0.46784,-0.46784 0.77973,-0.15595 c 5.45814,-0.62379 11.38413,-0.31189 17.46606,1.09163 l 0.15594,0 c 7.6414,2.02731 15.2828,4.9903 22.9242,8.73302 4.83435,2.33921 9.66871,5.14625 14.34712,8.26519 l 7.79734,-9.51276 6.08193,45.38055 z m 22.45636,74.54262 44.13297,-1.09163 -8.88897,10.91629 c 19.80525,12.16386 38.98672,16.06253 53.17789,10.29249 l 4.9903,-2.02731 -2.18325,4.99031 c -4.9903,11.38412 -12.00791,21.67662 -21.05284,30.2537 l -0.46784,0.46784 -0.77973,0.15594 c -5.45814,0.62379 -11.38412,0.3119 -17.46605,-1.09162 l -0.15595,0 c -7.6414,-2.02731 -15.2828,-4.99031 -22.9242,-8.73303 -4.83435,-2.3392 -9.66871,-5.14625 -14.34711,-8.26519 l -7.79735,9.51276 -6.23787,-45.38055 z m 27.13476,-48.81138 -1.09163,-44.13298 10.91628,8.88898 c 12.16386,-19.80526 16.06253,-38.98673 10.2925,-53.1779 l -2.02731,-4.9903 4.9903,2.18326 c 11.38412,4.9903 21.67662,12.00791 30.2537,21.05283 l 0.46784,0.46784 0.15595,0.77974 c 0.62379,5.45814 0.31189,11.38412 -1.09163,17.46605 l 0,0.15595 c -2.02731,7.6414 -4.9903,15.28279 -8.73303,22.92419 -2.3392,4.83436 -5.14624,9.66871 -8.26518,14.34712 l 9.51276,7.79734 -45.38055,6.23788 z m -77.34967,22.30041 1.09163,44.13297 -10.91629,-8.88897 c -12.16385,19.80526 -16.06253,38.98673 -10.29249,53.1779 l 2.02731,4.9903 -4.9903,-2.18326 c -11.38413,-4.9903 -21.67662,-12.00791 -30.2537,-21.05283 l -0.46784,-0.46784 -0.15595,-0.77974 c -0.62379,-5.45814 -0.31189,-11.38412 1.09163,-17.46605 l 0,-0.15595 c 2.02731,-7.6414 4.9903,-15.2828 8.73302,-22.92419 2.33921,-4.83436 5.14625,-9.66871 8.26519,-14.34712 l -9.51276,-7.79735 45.38055,-6.23787 z"
         style="fill:#989898;fill-opacity:1"
         id="path37" />
      <circle
         style="fill:#c8c8c8;fill-opacity:1"
         id="circle43"
         r="94.347878"
         cy="862.6604"
         cx="335.06757"
         class="st1" />
      <path
         style="fill:#ffffff;fill-opacity:1"
         d="m 298.88788,897.59251 c -2.49515,5.45814 -4.9903,9.51276 -7.95329,13.56738 -4.36651,6.23788 -9.20087,12.00791 -14.34712,16.84227 -12.00791,11.85196 -24.32771,18.08984 -34.46426,16.37442 l 3.74272,3.58678 c 9.04492,8.57708 24.95151,19.96121 31.81317,20.11715 0.77974,-0.15594 0.77974,-0.15594 0.77974,-0.15594 5.30219,-1.55947 10.60439,-4.05462 15.75063,-7.6414 l 0.15595,0 c 7.48545,-4.67841 19.80526,-13.87928 34.15237,-46.62813 l 10.91629,5.77004 -11.85197,-44.13298 -41.01403,15.59469 12.3198,6.70572 z m 71.42369,-68.46069 c 2.49515,-5.45814 4.9903,-9.51276 7.95329,-13.56738 4.36651,-6.23788 9.20087,-12.00792 14.34711,-16.84227 12.00792,-11.85196 24.32772,-18.08984 34.46427,-16.37443 l -3.74272,-3.58677 c -9.04492,-8.57708 -24.95151,-19.96121 -31.81317,-20.11716 -0.77974,0.15595 -0.77974,0.15595 -0.77974,0.15595 -5.30219,1.55947 -10.60439,4.05462 -15.75064,7.6414 l -0.15594,0 c -7.48545,4.67841 -19.80526,13.87927 -34.15238,46.62813 l -10.91628,-5.77004 11.85196,44.13298 41.16999,-15.5947 -12.47575,-6.70571 z m -1.09163,68.92853 c 5.45814,2.49515 9.51276,4.9903 13.56738,7.95329 6.23788,4.36652 12.00791,9.20087 16.84227,14.34712 11.85196,12.00791 18.08984,24.32772 16.37442,34.46427 l 3.58678,-3.74273 c 8.57708,-9.04492 19.9612,-24.9515 20.11715,-31.81317 -0.15595,-0.77973 -0.15595,-0.77973 -0.15595,-0.77973 -1.55946,-5.3022 -4.05462,-10.60439 -7.64139,-15.75064 l 0,-0.15595 c -4.67841,-7.48545 -13.87928,-19.80526 -46.62813,-34.15237 l 5.77004,-10.91628 -44.13298,11.85196 15.90658,40.85809 6.39383,-12.16386 z M 300.6033,829.44371 c -5.45814,-2.49515 -9.51276,-4.9903 -13.56738,-7.95329 -6.23788,-4.36651 -12.00792,-9.20087 -16.84227,-14.34712 -11.85196,-12.00791 -18.08984,-24.32771 -16.37443,-34.46426 l -3.58677,3.89867 c -8.57708,9.04492 -19.96121,24.9515 -20.11716,31.81317 0.15595,0.77973 0.15595,0.77973 0.15595,0.77973 1.55947,5.3022 4.05462,10.60439 7.6414,15.75064 l 0,0.15595 c 4.67841,7.48545 13.87927,19.80526 46.62813,34.15237 l -5.77004,10.91628 44.13298,-11.85196 -15.75064,-41.32593 -6.54977,12.47575 z"
         id="path59" />
    </g>
  </g>
</svg>
